ply
format ascii 1.0
comment RFVisualizer Phase 2-A metric mesh
element vertex 408
property float x
property float y
property float z
element face 604
property list uchar int vertex_indices
end_header
0 4.592697 3
2.041199 4.592697 3
2.041199 5.613297 3
0 5.613297 3
2.041199 7.144196 3
0 7.144196 3
2.041199 8.164795 3
0 8.164795 3
2.041199 9.695694 3
0 9.695694 3
2.041199 11.736893 3
0 11.736893 3
2.041199 12.757492 3
0 12.757492 3
2.041199 14.288391 3
0 14.288391 3
2.041199 15.308991 3
0 15.308991 3
2.041199 16.83989 3
0 16.83989 3
2.041199 19.901688 3
0 19.901688 3
2.041199 20.922287 3
0 20.922287 3
2.551498 4.592697 3
2.551498 5.613297 3
2.551498 7.144196 3
2.551498 8.164795 3
2.551498 9.695694 3
2.551498 11.736893 3
2.551498 12.757492 3
2.551498 14.288391 3
2.551498 15.308991 3
2.551498 16.83989 3
2.551498 19.901688 3
2.551498 20.922287 3
4.082398 4.592697 3
4.082398 5.613297 3
4.082398 7.144196 3
4.082398 14.288391 3
4.082398 15.308991 3
4.082398 16.83989 3
4.082398 19.901688 3
4.082398 20.922287 3
5.613297 4.592697 3
5.613297 5.613297 3
5.613297 7.144196 3
5.613297 8.164795 3
4.082398 8.164795 3
5.613297 9.695694 3
4.082398 9.695694 3
5.613297 11.736893 3
4.082398 11.736893 3
5.613297 12.757492 3
4.082398 12.757492 3
5.613297 14.288391 3
5.613297 15.308991 3
5.613297 16.83989 3
5.613297 19.901688 3
5.613297 20.922287 3
6.633896 4.592697 3
6.633896 5.613297 3
6.633896 7.144196 3
6.633896 14.288391 3
6.633896 15.308991 3
6.633896 16.83989 3
6.633896 19.901688 3
6.633896 20.922287 3
8.164795 4.592697 3
8.164795 5.613297 3
8.164795 7.144196 3
8.164795 14.288391 3
8.164795 15.308991 3
8.164795 16.83989 3
8.164795 19.901688 3
8.164795 20.922287 3
9.695694 4.592697 3
9.695694 5.613297 3
9.695694 7.144196 3
9.695694 14.288391 3
9.695694 15.308991 3
9.695694 16.83989 3
9.695694 19.901688 3
9.695694 20.922287 3
10.716293 4.592697 3
10.716293 5.613297 3
10.716293 7.144196 3
10.716293 14.288391 3
10.716293 15.308991 3
10.716293 16.83989 3
10.716293 19.901688 3
10.716293 20.922287 3
11.226593 4.592697 3
11.226593 5.613297 3
11.226593 7.144196 3
11.226593 14.288391 3
11.226593 15.308991 3
11.226593 16.83989 3
11.226593 19.901688 3
11.226593 20.922287 3
12.247193 4.592697 3
12.247193 5.613297 3
12.247193 7.144196 3
12.247193 14.288391 3
12.247193 15.308991 3
12.247193 16.83989 3
12.247193 19.901688 3
12.247193 20.922287 3
13.267792 4.592697 3
13.267792 5.613297 3
13.267792 7.144196 3
13.267792 14.288391 3
13.267792 15.308991 3
13.267792 16.83989 3
13.267792 19.901688 3
13.267792 20.922287 3
14.288391 4.592697 3
14.288391 5.613297 3
14.288391 7.144196 3
14.288391 8.164795 3
13.267792 8.164795 3
14.288391 14.288391 3
14.288391 15.308991 3
14.288391 16.83989 3
14.288391 19.901688 3
14.288391 20.922287 3
15.308991 4.592697 3
15.308991 5.613297 3
15.308991 7.144196 3
15.308991 8.164795 3
15.308991 14.288391 3
15.308991 15.308991 3
15.308991 16.83989 3
15.308991 19.901688 3
15.308991 20.922287 3
16.32959 4.592697 3
16.32959 5.613297 3
16.32959 7.144196 3
16.32959 8.164795 3
16.32959 14.288391 3
16.32959 15.308991 3
16.32959 16.83989 3
16.32959 19.901688 3
16.32959 20.922287 3
17.350189 4.592697 3
17.350189 5.613297 3
17.350189 7.144196 3
17.350189 8.164795 3
17.350189 14.288391 3
17.350189 15.308991 3
17.350189 16.83989 3
17.350189 19.901688 3
17.350189 20.922287 3
18.881089 4.592697 3
18.881089 5.613297 3
18.881089 7.144196 3
18.881089 8.164795 3
18.881089 9.695694 3
17.350189 9.695694 3
18.881089 11.736893 3
17.350189 11.736893 3
18.881089 14.288391 3
18.881089 15.308991 3
18.881089 16.83989 3
18.881089 19.901688 3
18.881089 20.922287 3
20.411988 4.592697 3
20.411988 5.613297 3
20.411988 7.144196 3
20.411988 14.288391 3
20.411988 15.308991 3
20.411988 16.83989 3
20.411988 19.901688 3
20.411988 20.922287 3
21.432587 4.592697 3
21.432587 5.613297 3
21.432587 7.144196 3
21.432587 14.288391 3
21.432587 15.308991 3
21.432587 16.83989 3
21.432587 19.901688 3
21.432587 20.922287 3
22.963486 4.592697 3
22.963486 5.613297 3
22.963486 7.144196 3
22.963486 14.288391 3
22.963486 15.308991 3
22.963486 16.83989 3
22.963486 19.901688 3
22.963486 20.922287 3
23.473786 4.592697 3
23.473786 5.613297 3
23.473786 7.144196 3
23.473786 14.288391 3
23.473786 15.308991 3
23.473786 16.83989 3
23.473786 19.901688 3
23.473786 20.922287 3
23.984085 4.592697 3
23.984085 5.613297 3
23.984085 7.144196 3
23.984085 14.288391 3
23.984085 15.308991 3
23.984085 16.83989 3
23.984085 19.901688 3
23.984085 20.922287 3
23.984085 0 3
25.004685 0 3
25.004685 1.530899 3
23.984085 1.530899 3
25.004685 2.041199 3
23.984085 2.041199 3
25.004685 2.551498 3
23.984085 2.551498 3
25.004685 3.572098 3
23.984085 3.572098 3
25.004685 4.592697 3
25.004685 5.613297 3
25.004685 7.144196 3
25.004685 14.288391 3
25.004685 15.308991 3
25.004685 16.83989 3
25.004685 19.901688 3
25.004685 20.922287 3
25.514984 0 3
25.514984 1.530899 3
25.514984 2.041199 3
25.514984 2.551498 3
25.514984 3.572098 3
25.514984 4.592697 3
25.514984 5.613297 3
25.514984 7.144196 3
25.514984 14.288391 3
25.514984 15.308991 3
25.514984 16.83989 3
25.514984 19.901688 3
25.514984 20.922287 3
26.535584 0 3
26.535584 1.530899 3
26.535584 2.041199 3
26.535584 2.551498 3
26.535584 3.572098 3
26.535584 4.592697 3
26.535584 5.613297 3
26.535584 7.144196 3
26.535584 14.288391 3
26.535584 15.308991 3
26.535584 16.83989 3
26.535584 19.901688 3
26.535584 20.922287 3
27.045884 0 3
27.045884 1.530899 3
27.045884 2.041199 3
27.045884 2.551498 3
27.045884 3.572098 3
27.045884 4.592697 3
27.045884 5.613297 3
27.045884 7.144196 3
27.045884 14.288391 3
27.045884 15.308991 3
27.045884 16.83989 3
27.045884 19.901688 3
27.045884 20.922287 3
28.066483 0 3
28.066483 1.530899 3
28.066483 2.041199 3
28.066483 2.551498 3
28.066483 3.572098 3
28.066483 4.592697 3
28.066483 5.613297 3
28.066483 7.144196 3
28.066483 14.288391 3
28.066483 15.308991 3
28.066483 16.83989 3
28.066483 19.901688 3
28.066483 20.922287 3
29.087082 0 3
29.087082 1.530899 3
29.087082 2.041199 3
29.087082 2.551498 3
29.087082 3.572098 3
29.087082 4.592697 3
29.087082 5.613297 3
29.087082 7.144196 3
29.087082 14.288391 3
29.087082 15.308991 3
29.087082 16.83989 3
29.087082 19.901688 3
29.087082 20.922287 3
31.128281 0 3
31.128281 1.530899 3
31.128281 2.041199 3
31.128281 2.551498 3
31.128281 3.572098 3
31.128281 4.592697 3
31.128281 5.613297 3
31.128281 7.144196 3
31.128281 14.288391 3
31.128281 15.308991 3
31.128281 16.83989 3
31.128281 19.901688 3
31.128281 20.922287 3
32.14888 0 3
32.14888 1.530899 3
32.14888 4.592697 3
32.14888 5.613297 3
32.14888 7.144196 3
32.14888 14.288391 3
32.14888 15.308991 3
32.14888 16.83989 3
32.14888 19.901688 3
32.14888 20.922287 3
34.190079 4.592697 3
34.190079 5.613297 3
34.190079 7.144196 3
34.190079 15.308991 3
34.190079 16.83989 3
34.190079 19.901688 3
34.190079 20.922287 3
35.210679 4.592697 3
35.210679 5.613297 3
35.210679 7.144196 3
35.210679 15.308991 3
35.210679 16.83989 3
35.210679 19.901688 3
35.210679 20.922287 3
36.231278 4.592697 3
36.231278 5.613297 3
36.231278 7.144196 3
36.231278 15.308991 3
36.231278 16.83989 3
36.231278 19.901688 3
36.231278 20.922287 3
36.231278 0 3
37.251877 0 3
37.251877 1.530899 3
36.231278 1.530899 3
37.251877 2.041199 3
36.231278 2.041199 3
37.251877 2.551498 3
36.231278 2.551498 3
37.251877 3.572098 3
36.231278 3.572098 3
37.251877 4.592697 3
37.251877 5.613297 3
37.251877 7.144196 3
37.251877 8.164795 3
36.231278 8.164795 3
37.251877 15.308991 3
37.251877 16.83989 3
37.251877 19.901688 3
37.251877 20.922287 3
38.272477 0 3
38.272477 1.530899 3
38.272477 2.041199 3
38.272477 2.551498 3
38.272477 3.572098 3
38.272477 4.592697 3
38.272477 5.613297 3
38.272477 7.144196 3
38.272477 8.164795 3
38.272477 9.695694 3
37.251877 9.695694 3
38.272477 11.736893 3
37.251877 11.736893 3
38.272477 12.757492 3
37.251877 12.757492 3
38.272477 14.288391 3
37.251877 14.288391 3
38.272477 15.308991 3
38.272477 16.83989 3
38.272477 19.901688 3
38.272477 20.922287 3
39.293076 0 3
39.293076 1.530899 3
39.293076 2.041199 3
39.293076 2.551498 3
39.293076 3.572098 3
39.293076 4.592697 3
39.293076 5.613297 3
39.293076 7.144196 3
39.293076 8.164795 3
39.293076 9.695694 3
39.293076 11.736893 3
39.293076 12.757492 3
39.293076 14.288391 3
39.293076 15.308991 3
39.293076 16.83989 3
39.293076 19.901688 3
39.293076 20.922287 3
40.313675 5.613297 3
40.313675 7.144196 3
40.313675 8.164795 3
40.313675 9.695694 3
40.313675 11.736893 3
40.313675 12.757492 3
40.313675 14.288391 3
40.313675 15.308991 3
40.313675 16.83989 3
40.313675 19.901688 3
42.354874 5.613297 3
42.354874 7.144196 3
43.375474 5.613297 3
43.375474 7.144196 3
43.885773 5.613297 3
43.885773 7.144196 3
44.906373 5.613297 3
44.906373 7.144196 3
3 0 1 2
3 0 2 3
3 3 2 4
3 3 4 5
3 5 4 6
3 5 6 7
3 7 6 8
3 7 8 9
3 9 8 10
3 9 10 11
3 11 10 12
3 11 12 13
3 13 12 14
3 13 14 15
3 15 14 16
3 15 16 17
3 17 16 18
3 17 18 19
3 19 18 20
3 19 20 21
3 21 20 22
3 21 22 23
3 1 24 25
3 1 25 2
3 2 25 26
3 2 26 4
3 4 26 27
3 4 27 6
3 6 27 28
3 6 28 8
3 8 28 29
3 8 29 10
3 10 29 30
3 10 30 12
3 12 30 31
3 12 31 14
3 14 31 32
3 14 32 16
3 16 32 33
3 16 33 18
3 18 33 34
3 18 34 20
3 20 34 35
3 20 35 22
3 24 36 37
3 24 37 25
3 25 37 38
3 25 38 26
3 31 39 40
3 31 40 32
3 32 40 41
3 32 41 33
3 33 41 42
3 33 42 34
3 34 42 43
3 34 43 35
3 36 44 45
3 36 45 37
3 37 45 46
3 37 46 38
3 38 46 47
3 38 47 48
3 48 47 49
3 48 49 50
3 50 49 51
3 50 51 52
3 52 51 53
3 52 53 54
3 54 53 55
3 54 55 39
3 39 55 56
3 39 56 40
3 40 56 57
3 40 57 41
3 41 57 58
3 41 58 42
3 42 58 59
3 42 59 43
3 44 60 61
3 44 61 45
3 45 61 62
3 45 62 46
3 55 63 64
3 55 64 56
3 56 64 65
3 56 65 57
3 57 65 66
3 57 66 58
3 58 66 67
3 58 67 59
3 60 68 69
3 60 69 61
3 61 69 70
3 61 70 62
3 63 71 72
3 63 72 64
3 64 72 73
3 64 73 65
3 65 73 74
3 65 74 66
3 66 74 75
3 66 75 67
3 68 76 77
3 68 77 69
3 69 77 78
3 69 78 70
3 71 79 80
3 71 80 72
3 72 80 81
3 72 81 73
3 73 81 82
3 73 82 74
3 74 82 83
3 74 83 75
3 76 84 85
3 76 85 77
3 77 85 86
3 77 86 78
3 79 87 88
3 79 88 80
3 80 88 89
3 80 89 81
3 81 89 90
3 81 90 82
3 82 90 91
3 82 91 83
3 84 92 93
3 84 93 85
3 85 93 94
3 85 94 86
3 87 95 96
3 87 96 88
3 88 96 97
3 88 97 89
3 89 97 98
3 89 98 90
3 90 98 99
3 90 99 91
3 92 100 101
3 92 101 93
3 93 101 102
3 93 102 94
3 95 103 104
3 95 104 96
3 96 104 105
3 96 105 97
3 97 105 106
3 97 106 98
3 98 106 107
3 98 107 99
3 100 108 109
3 100 109 101
3 101 109 110
3 101 110 102
3 103 111 112
3 103 112 104
3 104 112 113
3 104 113 105
3 105 113 114
3 105 114 106
3 106 114 115
3 106 115 107
3 108 116 117
3 108 117 109
3 109 117 118
3 109 118 110
3 110 118 119
3 110 119 120
3 111 121 122
3 111 122 112
3 112 122 123
3 112 123 113
3 113 123 124
3 113 124 114
3 114 124 125
3 114 125 115
3 116 126 127
3 116 127 117
3 117 127 128
3 117 128 118
3 118 128 129
3 118 129 119
3 121 130 131
3 121 131 122
3 122 131 132
3 122 132 123
3 123 132 133
3 123 133 124
3 124 133 134
3 124 134 125
3 126 135 136
3 126 136 127
3 127 136 137
3 127 137 128
3 128 137 138
3 128 138 129
3 130 139 140
3 130 140 131
3 131 140 141
3 131 141 132
3 132 141 142
3 132 142 133
3 133 142 143
3 133 143 134
3 135 144 145
3 135 145 136
3 136 145 146
3 136 146 137
3 137 146 147
3 137 147 138
3 139 148 149
3 139 149 140
3 140 149 150
3 140 150 141
3 141 150 151
3 141 151 142
3 142 151 152
3 142 152 143
3 144 153 154
3 144 154 145
3 145 154 155
3 145 155 146
3 146 155 156
3 146 156 147
3 147 156 157
3 147 157 158
3 158 157 159
3 158 159 160
3 148 161 162
3 148 162 149
3 149 162 163
3 149 163 150
3 150 163 164
3 150 164 151
3 151 164 165
3 151 165 152
3 153 166 167
3 153 167 154
3 154 167 168
3 154 168 155
3 161 169 170
3 161 170 162
3 162 170 171
3 162 171 163
3 163 171 172
3 163 172 164
3 164 172 173
3 164 173 165
3 166 174 175
3 166 175 167
3 167 175 176
3 167 176 168
3 169 177 178
3 169 178 170
3 170 178 179
3 170 179 171
3 171 179 180
3 171 180 172
3 172 180 181
3 172 181 173
3 174 182 183
3 174 183 175
3 175 183 184
3 175 184 176
3 177 185 186
3 177 186 178
3 178 186 187
3 178 187 179
3 179 187 188
3 179 188 180
3 180 188 189
3 180 189 181
3 182 190 191
3 182 191 183
3 183 191 192
3 183 192 184
3 185 193 194
3 185 194 186
3 186 194 195
3 186 195 187
3 187 195 196
3 187 196 188
3 188 196 197
3 188 197 189
3 190 198 199
3 190 199 191
3 191 199 200
3 191 200 192
3 193 201 202
3 193 202 194
3 194 202 203
3 194 203 195
3 195 203 204
3 195 204 196
3 196 204 205
3 196 205 197
3 206 207 208
3 206 208 209
3 209 208 210
3 209 210 211
3 211 210 212
3 211 212 213
3 213 212 214
3 213 214 215
3 215 214 216
3 215 216 198
3 198 216 217
3 198 217 199
3 199 217 218
3 199 218 200
3 201 219 220
3 201 220 202
3 202 220 221
3 202 221 203
3 203 221 222
3 203 222 204
3 204 222 223
3 204 223 205
3 207 224 225
3 207 225 208
3 208 225 226
3 208 226 210
3 210 226 227
3 210 227 212
3 212 227 228
3 212 228 214
3 214 228 229
3 214 229 216
3 216 229 230
3 216 230 217
3 217 230 231
3 217 231 218
3 219 232 233
3 219 233 220
3 220 233 234
3 220 234 221
3 221 234 235
3 221 235 222
3 222 235 236
3 222 236 223
3 224 237 238
3 224 238 225
3 225 238 239
3 225 239 226
3 226 239 240
3 226 240 227
3 227 240 241
3 227 241 228
3 228 241 242
3 228 242 229
3 229 242 243
3 229 243 230
3 230 243 244
3 230 244 231
3 232 245 246
3 232 246 233
3 233 246 247
3 233 247 234
3 234 247 248
3 234 248 235
3 235 248 249
3 235 249 236
3 237 250 251
3 237 251 238
3 238 251 252
3 238 252 239
3 239 252 253
3 239 253 240
3 240 253 254
3 240 254 241
3 241 254 255
3 241 255 242
3 242 255 256
3 242 256 243
3 243 256 257
3 243 257 244
3 245 258 259
3 245 259 246
3 246 259 260
3 246 260 247
3 247 260 261
3 247 261 248
3 248 261 262
3 248 262 249
3 250 263 264
3 250 264 251
3 251 264 265
3 251 265 252
3 252 265 266
3 252 266 253
3 253 266 267
3 253 267 254
3 254 267 268
3 254 268 255
3 255 268 269
3 255 269 256
3 256 269 270
3 256 270 257
3 258 271 272
3 258 272 259
3 259 272 273
3 259 273 260
3 260 273 274
3 260 274 261
3 261 274 275
3 261 275 262
3 263 276 277
3 263 277 264
3 264 277 278
3 264 278 265
3 265 278 279
3 265 279 266
3 266 279 280
3 266 280 267
3 268 281 282
3 268 282 269
3 269 282 283
3 269 283 270
3 271 284 285
3 271 285 272
3 272 285 286
3 272 286 273
3 273 286 287
3 273 287 274
3 274 287 288
3 274 288 275
3 276 289 290
3 276 290 277
3 277 290 291
3 277 291 278
3 278 291 292
3 278 292 279
3 279 292 293
3 279 293 280
3 280 293 294
3 280 294 281
3 281 294 295
3 281 295 282
3 282 295 296
3 282 296 283
3 284 297 298
3 284 298 285
3 285 298 299
3 285 299 286
3 286 299 300
3 286 300 287
3 287 300 301
3 287 301 288
3 289 302 303
3 289 303 290
3 294 304 305
3 294 305 295
3 295 305 306
3 295 306 296
3 297 307 308
3 297 308 298
3 298 308 309
3 298 309 299
3 299 309 310
3 299 310 300
3 300 310 311
3 300 311 301
3 304 312 313
3 304 313 305
3 305 313 314
3 305 314 306
3 308 315 316
3 308 316 309
3 309 316 317
3 309 317 310
3 310 317 318
3 310 318 311
3 312 319 320
3 312 320 313
3 313 320 321
3 313 321 314
3 315 322 323
3 315 323 316
3 316 323 324
3 316 324 317
3 317 324 325
3 317 325 318
3 319 326 327
3 319 327 320
3 320 327 328
3 320 328 321
3 322 329 330
3 322 330 323
3 323 330 331
3 323 331 324
3 324 331 332
3 324 332 325
3 333 334 335
3 333 335 336
3 336 335 337
3 336 337 338
3 338 337 339
3 338 339 340
3 340 339 341
3 340 341 342
3 342 341 343
3 342 343 326
3 326 343 344
3 326 344 327
3 327 344 345
3 327 345 328
3 328 345 346
3 328 346 347
3 329 348 349
3 329 349 330
3 330 349 350
3 330 350 331
3 331 350 351
3 331 351 332
3 334 352 353
3 334 353 335
3 335 353 354
3 335 354 337
3 337 354 355
3 337 355 339
3 339 355 356
3 339 356 341
3 341 356 357
3 341 357 343
3 343 357 358
3 343 358 344
3 344 358 359
3 344 359 345
3 345 359 360
3 345 360 346
3 346 360 361
3 346 361 362
3 362 361 363
3 362 363 364
3 364 363 365
3 364 365 366
3 366 365 367
3 366 367 368
3 368 367 369
3 368 369 348
3 348 369 370
3 348 370 349
3 349 370 371
3 349 371 350
3 350 371 372
3 350 372 351
3 352 373 374
3 352 374 353
3 353 374 375
3 353 375 354
3 354 375 376
3 354 376 355
3 355 376 377
3 355 377 356
3 356 377 378
3 356 378 357
3 357 378 379
3 357 379 358
3 358 379 380
3 358 380 359
3 359 380 381
3 359 381 360
3 360 381 382
3 360 382 361
3 361 382 383
3 361 383 363
3 363 383 384
3 363 384 365
3 365 384 385
3 365 385 367
3 367 385 386
3 367 386 369
3 369 386 387
3 369 387 370
3 370 387 388
3 370 388 371
3 371 388 389
3 371 389 372
3 379 390 391
3 379 391 380
3 380 391 392
3 380 392 381
3 381 392 393
3 381 393 382
3 382 393 394
3 382 394 383
3 383 394 395
3 383 395 384
3 384 395 396
3 384 396 385
3 385 396 397
3 385 397 386
3 386 397 398
3 386 398 387
3 387 398 399
3 387 399 388
3 390 400 401
3 390 401 391
3 400 402 403
3 400 403 401
3 402 404 405
3 402 405 403
3 404 406 407
3 404 407 405
