ply
format ascii 1.0
comment RFVisualizer Phase 2-A metric mesh
element vertex 408
property float x
property float y
property float z
element face 604
property list uchar int vertex_indices
end_header
0 4.592697 0
2.041199 5.613297 0
2.041199 4.592697 0
0 5.613297 0
2.041199 7.144196 0
0 7.144196 0
2.041199 8.164795 0
0 8.164795 0
2.041199 9.695694 0
0 9.695694 0
2.041199 11.736893 0
0 11.736893 0
2.041199 12.757492 0
0 12.757492 0
2.041199 14.288391 0
0 14.288391 0
2.041199 15.308991 0
0 15.308991 0
2.041199 16.83989 0
0 16.83989 0
2.041199 19.901688 0
0 19.901688 0
2.041199 20.922287 0
0 20.922287 0
2.551498 5.613297 0
2.551498 4.592697 0
2.551498 7.144196 0
2.551498 8.164795 0
2.551498 9.695694 0
2.551498 11.736893 0
2.551498 12.757492 0
2.551498 14.288391 0
2.551498 15.308991 0
2.551498 16.83989 0
2.551498 19.901688 0
2.551498 20.922287 0
4.082398 5.613297 0
4.082398 4.592697 0
4.082398 7.144196 0
4.082398 15.308991 0
4.082398 14.288391 0
4.082398 16.83989 0
4.082398 19.901688 0
4.082398 20.922287 0
5.613297 5.613297 0
5.613297 4.592697 0
5.613297 7.144196 0
5.613297 8.164795 0
4.082398 8.164795 0
5.613297 9.695694 0
4.082398 9.695694 0
5.613297 11.736893 0
4.082398 11.736893 0
5.613297 12.757492 0
4.082398 12.757492 0
5.613297 14.288391 0
5.613297 15.308991 0
5.613297 16.83989 0
5.613297 19.901688 0
5.613297 20.922287 0
6.633896 5.613297 0
6.633896 4.592697 0
6.633896 7.144196 0
6.633896 15.308991 0
6.633896 14.288391 0
6.633896 16.83989 0
6.633896 19.901688 0
6.633896 20.922287 0
8.164795 5.613297 0
8.164795 4.592697 0
8.164795 7.144196 0
8.164795 15.308991 0
8.164795 14.288391 0
8.164795 16.83989 0
8.164795 19.901688 0
8.164795 20.922287 0
9.695694 5.613297 0
9.695694 4.592697 0
9.695694 7.144196 0
9.695694 15.308991 0
9.695694 14.288391 0
9.695694 16.83989 0
9.695694 19.901688 0
9.695694 20.922287 0
10.716293 5.613297 0
10.716293 4.592697 0
10.716293 7.144196 0
10.716293 15.308991 0
10.716293 14.288391 0
10.716293 16.83989 0
10.716293 19.901688 0
10.716293 20.922287 0
11.226593 5.613297 0
11.226593 4.592697 0
11.226593 7.144196 0
11.226593 15.308991 0
11.226593 14.288391 0
11.226593 16.83989 0
11.226593 19.901688 0
11.226593 20.922287 0
12.247193 5.613297 0
12.247193 4.592697 0
12.247193 7.144196 0
12.247193 15.308991 0
12.247193 14.288391 0
12.247193 16.83989 0
12.247193 19.901688 0
12.247193 20.922287 0
13.267792 5.613297 0
13.267792 4.592697 0
13.267792 7.144196 0
13.267792 15.308991 0
13.267792 14.288391 0
13.267792 16.83989 0
13.267792 19.901688 0
13.267792 20.922287 0
14.288391 5.613297 0
14.288391 4.592697 0
14.288391 7.144196 0
14.288391 8.164795 0
13.267792 8.164795 0
14.288391 15.308991 0
14.288391 14.288391 0
14.288391 16.83989 0
14.288391 19.901688 0
14.288391 20.922287 0
15.308991 5.613297 0
15.308991 4.592697 0
15.308991 7.144196 0
15.308991 8.164795 0
15.308991 15.308991 0
15.308991 14.288391 0
15.308991 16.83989 0
15.308991 19.901688 0
15.308991 20.922287 0
16.32959 5.613297 0
16.32959 4.592697 0
16.32959 7.144196 0
16.32959 8.164795 0
16.32959 15.308991 0
16.32959 14.288391 0
16.32959 16.83989 0
16.32959 19.901688 0
16.32959 20.922287 0
17.350189 5.613297 0
17.350189 4.592697 0
17.350189 7.144196 0
17.350189 8.164795 0
17.350189 15.308991 0
17.350189 14.288391 0
17.350189 16.83989 0
17.350189 19.901688 0
17.350189 20.922287 0
18.881089 5.613297 0
18.881089 4.592697 0
18.881089 7.144196 0
18.881089 8.164795 0
18.881089 9.695694 0
17.350189 9.695694 0
18.881089 11.736893 0
17.350189 11.736893 0
18.881089 15.308991 0
18.881089 14.288391 0
18.881089 16.83989 0
18.881089 19.901688 0
18.881089 20.922287 0
20.411988 5.613297 0
20.411988 4.592697 0
20.411988 7.144196 0
20.411988 15.308991 0
20.411988 14.288391 0
20.411988 16.83989 0
20.411988 19.901688 0
20.411988 20.922287 0
21.432587 5.613297 0
21.432587 4.592697 0
21.432587 7.144196 0
21.432587 15.308991 0
21.432587 14.288391 0
21.432587 16.83989 0
21.432587 19.901688 0
21.432587 20.922287 0
22.963486 5.613297 0
22.963486 4.592697 0
22.963486 7.144196 0
22.963486 15.308991 0
22.963486 14.288391 0
22.963486 16.83989 0
22.963486 19.901688 0
22.963486 20.922287 0
23.473786 5.613297 0
23.473786 4.592697 0
23.473786 7.144196 0
23.473786 15.308991 0
23.473786 14.288391 0
23.473786 16.83989 0
23.473786 19.901688 0
23.473786 20.922287 0
23.984085 5.613297 0
23.984085 4.592697 0
23.984085 7.144196 0
23.984085 15.308991 0
23.984085 14.288391 0
23.984085 16.83989 0
23.984085 19.901688 0
23.984085 20.922287 0
23.984085 0 0
25.004685 1.530899 0
25.004685 0 0
23.984085 1.530899 0
25.004685 2.041199 0
23.984085 2.041199 0
25.004685 2.551498 0
23.984085 2.551498 0
25.004685 3.572098 0
23.984085 3.572098 0
25.004685 4.592697 0
25.004685 5.613297 0
25.004685 7.144196 0
25.004685 15.308991 0
25.004685 14.288391 0
25.004685 16.83989 0
25.004685 19.901688 0
25.004685 20.922287 0
25.514984 1.530899 0
25.514984 0 0
25.514984 2.041199 0
25.514984 2.551498 0
25.514984 3.572098 0
25.514984 4.592697 0
25.514984 5.613297 0
25.514984 7.144196 0
25.514984 15.308991 0
25.514984 14.288391 0
25.514984 16.83989 0
25.514984 19.901688 0
25.514984 20.922287 0
26.535584 1.530899 0
26.535584 0 0
26.535584 2.041199 0
26.535584 2.551498 0
26.535584 3.572098 0
26.535584 4.592697 0
26.535584 5.613297 0
26.535584 7.144196 0
26.535584 15.308991 0
26.535584 14.288391 0
26.535584 16.83989 0
26.535584 19.901688 0
26.535584 20.922287 0
27.045884 1.530899 0
27.045884 0 0
27.045884 2.041199 0
27.045884 2.551498 0
27.045884 3.572098 0
27.045884 4.592697 0
27.045884 5.613297 0
27.045884 7.144196 0
27.045884 15.308991 0
27.045884 14.288391 0
27.045884 16.83989 0
27.045884 19.901688 0
27.045884 20.922287 0
28.066483 1.530899 0
28.066483 0 0
28.066483 2.041199 0
28.066483 2.551498 0
28.066483 3.572098 0
28.066483 4.592697 0
28.066483 5.613297 0
28.066483 7.144196 0
28.066483 15.308991 0
28.066483 14.288391 0
28.066483 16.83989 0
28.066483 19.901688 0
28.066483 20.922287 0
29.087082 1.530899 0
29.087082 0 0
29.087082 2.041199 0
29.087082 2.551498 0
29.087082 3.572098 0
29.087082 5.613297 0
29.087082 4.592697 0
29.087082 7.144196 0
29.087082 15.308991 0
29.087082 14.288391 0
29.087082 16.83989 0
29.087082 19.901688 0
29.087082 20.922287 0
31.128281 1.530899 0
31.128281 0 0
31.128281 2.041199 0
31.128281 2.551498 0
31.128281 3.572098 0
31.128281 4.592697 0
31.128281 5.613297 0
31.128281 7.144196 0
31.128281 15.308991 0
31.128281 14.288391 0
31.128281 16.83989 0
31.128281 19.901688 0
31.128281 20.922287 0
32.14888 1.530899 0
32.14888 0 0
32.14888 5.613297 0
32.14888 4.592697 0
32.14888 7.144196 0
32.14888 15.308991 0
32.14888 14.288391 0
32.14888 16.83989 0
32.14888 19.901688 0
32.14888 20.922287 0
34.190079 5.613297 0
34.190079 4.592697 0
34.190079 7.144196 0
34.190079 16.83989 0
34.190079 15.308991 0
34.190079 19.901688 0
34.190079 20.922287 0
35.210679 5.613297 0
35.210679 4.592697 0
35.210679 7.144196 0
35.210679 16.83989 0
35.210679 15.308991 0
35.210679 19.901688 0
35.210679 20.922287 0
36.231278 5.613297 0
36.231278 4.592697 0
36.231278 7.144196 0
36.231278 16.83989 0
36.231278 15.308991 0
36.231278 19.901688 0
36.231278 20.922287 0
36.231278 0 0
37.251877 1.530899 0
37.251877 0 0
36.231278 1.530899 0
37.251877 2.041199 0
36.231278 2.041199 0
37.251877 2.551498 0
36.231278 2.551498 0
37.251877 3.572098 0
36.231278 3.572098 0
37.251877 4.592697 0
37.251877 5.613297 0
37.251877 7.144196 0
37.251877 8.164795 0
36.231278 8.164795 0
37.251877 16.83989 0
37.251877 15.308991 0
37.251877 19.901688 0
37.251877 20.922287 0
38.272477 1.530899 0
38.272477 0 0
38.272477 2.041199 0
38.272477 2.551498 0
38.272477 3.572098 0
38.272477 4.592697 0
38.272477 5.613297 0
38.272477 7.144196 0
38.272477 8.164795 0
38.272477 9.695694 0
37.251877 9.695694 0
38.272477 11.736893 0
37.251877 11.736893 0
38.272477 12.757492 0
37.251877 12.757492 0
38.272477 14.288391 0
37.251877 14.288391 0
38.272477 15.308991 0
38.272477 16.83989 0
38.272477 19.901688 0
38.272477 20.922287 0
39.293076 1.530899 0
39.293076 0 0
39.293076 2.041199 0
39.293076 2.551498 0
39.293076 3.572098 0
39.293076 4.592697 0
39.293076 5.613297 0
39.293076 7.144196 0
39.293076 8.164795 0
39.293076 9.695694 0
39.293076 11.736893 0
39.293076 12.757492 0
39.293076 14.288391 0
39.293076 15.308991 0
39.293076 16.83989 0
39.293076 19.901688 0
39.293076 20.922287 0
40.313675 7.144196 0
40.313675 5.613297 0
40.313675 8.164795 0
40.313675 9.695694 0
40.313675 11.736893 0
40.313675 12.757492 0
40.313675 14.288391 0
40.313675 15.308991 0
40.313675 16.83989 0
40.313675 19.901688 0
42.354874 7.144196 0
42.354874 5.613297 0
43.375474 7.144196 0
43.375474 5.613297 0
43.885773 7.144196 0
43.885773 5.613297 0
44.906373 7.144196 0
44.906373 5.613297 0
3 0 1 2
3 0 3 1
3 3 4 1
3 3 5 4
3 5 6 4
3 5 7 6
3 7 8 6
3 7 9 8
3 9 10 8
3 9 11 10
3 11 12 10
3 11 13 12
3 13 14 12
3 13 15 14
3 15 16 14
3 15 17 16
3 17 18 16
3 17 19 18
3 19 20 18
3 19 21 20
3 21 22 20
3 21 23 22
3 2 24 25
3 2 1 24
3 1 26 24
3 1 4 26
3 4 27 26
3 4 6 27
3 6 28 27
3 6 8 28
3 8 29 28
3 8 10 29
3 10 30 29
3 10 12 30
3 12 31 30
3 12 14 31
3 14 32 31
3 14 16 32
3 16 33 32
3 16 18 33
3 18 34 33
3 18 20 34
3 20 35 34
3 20 22 35
3 25 36 37
3 25 24 36
3 24 38 36
3 24 26 38
3 31 39 40
3 31 32 39
3 32 41 39
3 32 33 41
3 33 42 41
3 33 34 42
3 34 43 42
3 34 35 43
3 37 44 45
3 37 36 44
3 36 46 44
3 36 38 46
3 38 47 46
3 38 48 47
3 48 49 47
3 48 50 49
3 50 51 49
3 50 52 51
3 52 53 51
3 52 54 53
3 54 55 53
3 54 40 55
3 40 56 55
3 40 39 56
3 39 57 56
3 39 41 57
3 41 58 57
3 41 42 58
3 42 59 58
3 42 43 59
3 45 60 61
3 45 44 60
3 44 62 60
3 44 46 62
3 55 63 64
3 55 56 63
3 56 65 63
3 56 57 65
3 57 66 65
3 57 58 66
3 58 67 66
3 58 59 67
3 61 68 69
3 61 60 68
3 60 70 68
3 60 62 70
3 64 71 72
3 64 63 71
3 63 73 71
3 63 65 73
3 65 74 73
3 65 66 74
3 66 75 74
3 66 67 75
3 69 76 77
3 69 68 76
3 68 78 76
3 68 70 78
3 72 79 80
3 72 71 79
3 71 81 79
3 71 73 81
3 73 82 81
3 73 74 82
3 74 83 82
3 74 75 83
3 77 84 85
3 77 76 84
3 76 86 84
3 76 78 86
3 80 87 88
3 80 79 87
3 79 89 87
3 79 81 89
3 81 90 89
3 81 82 90
3 82 91 90
3 82 83 91
3 85 92 93
3 85 84 92
3 84 94 92
3 84 86 94
3 88 95 96
3 88 87 95
3 87 97 95
3 87 89 97
3 89 98 97
3 89 90 98
3 90 99 98
3 90 91 99
3 93 100 101
3 93 92 100
3 92 102 100
3 92 94 102
3 96 103 104
3 96 95 103
3 95 105 103
3 95 97 105
3 97 106 105
3 97 98 106
3 98 107 106
3 98 99 107
3 101 108 109
3 101 100 108
3 100 110 108
3 100 102 110
3 104 111 112
3 104 103 111
3 103 113 111
3 103 105 113
3 105 114 113
3 105 106 114
3 106 115 114
3 106 107 115
3 109 116 117
3 109 108 116
3 108 118 116
3 108 110 118
3 110 119 118
3 110 120 119
3 112 121 122
3 112 111 121
3 111 123 121
3 111 113 123
3 113 124 123
3 113 114 124
3 114 125 124
3 114 115 125
3 117 126 127
3 117 116 126
3 116 128 126
3 116 118 128
3 118 129 128
3 118 119 129
3 122 130 131
3 122 121 130
3 121 132 130
3 121 123 132
3 123 133 132
3 123 124 133
3 124 134 133
3 124 125 134
3 127 135 136
3 127 126 135
3 126 137 135
3 126 128 137
3 128 138 137
3 128 129 138
3 131 139 140
3 131 130 139
3 130 141 139
3 130 132 141
3 132 142 141
3 132 133 142
3 133 143 142
3 133 134 143
3 136 144 145
3 136 135 144
3 135 146 144
3 135 137 146
3 137 147 146
3 137 138 147
3 140 148 149
3 140 139 148
3 139 150 148
3 139 141 150
3 141 151 150
3 141 142 151
3 142 152 151
3 142 143 152
3 145 153 154
3 145 144 153
3 144 155 153
3 144 146 155
3 146 156 155
3 146 147 156
3 147 157 156
3 147 158 157
3 158 159 157
3 158 160 159
3 149 161 162
3 149 148 161
3 148 163 161
3 148 150 163
3 150 164 163
3 150 151 164
3 151 165 164
3 151 152 165
3 154 166 167
3 154 153 166
3 153 168 166
3 153 155 168
3 162 169 170
3 162 161 169
3 161 171 169
3 161 163 171
3 163 172 171
3 163 164 172
3 164 173 172
3 164 165 173
3 167 174 175
3 167 166 174
3 166 176 174
3 166 168 176
3 170 177 178
3 170 169 177
3 169 179 177
3 169 171 179
3 171 180 179
3 171 172 180
3 172 181 180
3 172 173 181
3 175 182 183
3 175 174 182
3 174 184 182
3 174 176 184
3 178 185 186
3 178 177 185
3 177 187 185
3 177 179 187
3 179 188 187
3 179 180 188
3 180 189 188
3 180 181 189
3 183 190 191
3 183 182 190
3 182 192 190
3 182 184 192
3 186 193 194
3 186 185 193
3 185 195 193
3 185 187 195
3 187 196 195
3 187 188 196
3 188 197 196
3 188 189 197
3 191 198 199
3 191 190 198
3 190 200 198
3 190 192 200
3 194 201 202
3 194 193 201
3 193 203 201
3 193 195 203
3 195 204 203
3 195 196 204
3 196 205 204
3 196 197 205
3 206 207 208
3 206 209 207
3 209 210 207
3 209 211 210
3 211 212 210
3 211 213 212
3 213 214 212
3 213 215 214
3 215 216 214
3 215 199 216
3 199 217 216
3 199 198 217
3 198 218 217
3 198 200 218
3 202 219 220
3 202 201 219
3 201 221 219
3 201 203 221
3 203 222 221
3 203 204 222
3 204 223 222
3 204 205 223
3 208 224 225
3 208 207 224
3 207 226 224
3 207 210 226
3 210 227 226
3 210 212 227
3 212 228 227
3 212 214 228
3 214 229 228
3 214 216 229
3 216 230 229
3 216 217 230
3 217 231 230
3 217 218 231
3 220 232 233
3 220 219 232
3 219 234 232
3 219 221 234
3 221 235 234
3 221 222 235
3 222 236 235
3 222 223 236
3 225 237 238
3 225 224 237
3 224 239 237
3 224 226 239
3 226 240 239
3 226 227 240
3 227 241 240
3 227 228 241
3 228 242 241
3 228 229 242
3 229 243 242
3 229 230 243
3 230 244 243
3 230 231 244
3 233 245 246
3 233 232 245
3 232 247 245
3 232 234 247
3 234 248 247
3 234 235 248
3 235 249 248
3 235 236 249
3 238 250 251
3 238 237 250
3 237 252 250
3 237 239 252
3 239 253 252
3 239 240 253
3 240 254 253
3 240 241 254
3 241 255 254
3 241 242 255
3 242 256 255
3 242 243 256
3 243 257 256
3 243 244 257
3 246 258 259
3 246 245 258
3 245 260 258
3 245 247 260
3 247 261 260
3 247 248 261
3 248 262 261
3 248 249 262
3 251 263 264
3 251 250 263
3 250 265 263
3 250 252 265
3 252 266 265
3 252 253 266
3 253 267 266
3 253 254 267
3 254 268 267
3 254 255 268
3 255 269 268
3 255 256 269
3 256 270 269
3 256 257 270
3 259 271 272
3 259 258 271
3 258 273 271
3 258 260 273
3 260 274 273
3 260 261 274
3 261 275 274
3 261 262 275
3 264 276 277
3 264 263 276
3 263 278 276
3 263 265 278
3 265 279 278
3 265 266 279
3 266 280 279
3 266 267 280
3 268 281 282
3 268 269 281
3 269 283 281
3 269 270 283
3 272 284 285
3 272 271 284
3 271 286 284
3 271 273 286
3 273 287 286
3 273 274 287
3 274 288 287
3 274 275 288
3 277 289 290
3 277 276 289
3 276 291 289
3 276 278 291
3 278 292 291
3 278 279 292
3 279 293 292
3 279 280 293
3 280 294 293
3 280 282 294
3 282 295 294
3 282 281 295
3 281 296 295
3 281 283 296
3 285 297 298
3 285 284 297
3 284 299 297
3 284 286 299
3 286 300 299
3 286 287 300
3 287 301 300
3 287 288 301
3 290 302 303
3 290 289 302
3 294 304 305
3 294 295 304
3 295 306 304
3 295 296 306
3 298 307 308
3 298 297 307
3 297 309 307
3 297 299 309
3 299 310 309
3 299 300 310
3 300 311 310
3 300 301 311
3 305 312 313
3 305 304 312
3 304 314 312
3 304 306 314
3 307 315 316
3 307 309 315
3 309 317 315
3 309 310 317
3 310 318 317
3 310 311 318
3 313 319 320
3 313 312 319
3 312 321 319
3 312 314 321
3 316 322 323
3 316 315 322
3 315 324 322
3 315 317 324
3 317 325 324
3 317 318 325
3 320 326 327
3 320 319 326
3 319 328 326
3 319 321 328
3 323 329 330
3 323 322 329
3 322 331 329
3 322 324 331
3 324 332 331
3 324 325 332
3 333 334 335
3 333 336 334
3 336 337 334
3 336 338 337
3 338 339 337
3 338 340 339
3 340 341 339
3 340 342 341
3 342 343 341
3 342 327 343
3 327 344 343
3 327 326 344
3 326 345 344
3 326 328 345
3 328 346 345
3 328 347 346
3 330 348 349
3 330 329 348
3 329 350 348
3 329 331 350
3 331 351 350
3 331 332 351
3 335 352 353
3 335 334 352
3 334 354 352
3 334 337 354
3 337 355 354
3 337 339 355
3 339 356 355
3 339 341 356
3 341 357 356
3 341 343 357
3 343 358 357
3 343 344 358
3 344 359 358
3 344 345 359
3 345 360 359
3 345 346 360
3 346 361 360
3 346 362 361
3 362 363 361
3 362 364 363
3 364 365 363
3 364 366 365
3 366 367 365
3 366 368 367
3 368 369 367
3 368 349 369
3 349 370 369
3 349 348 370
3 348 371 370
3 348 350 371
3 350 372 371
3 350 351 372
3 353 373 374
3 353 352 373
3 352 375 373
3 352 354 375
3 354 376 375
3 354 355 376
3 355 377 376
3 355 356 377
3 356 378 377
3 356 357 378
3 357 379 378
3 357 358 379
3 358 380 379
3 358 359 380
3 359 381 380
3 359 360 381
3 360 382 381
3 360 361 382
3 361 383 382
3 361 363 383
3 363 384 383
3 363 365 384
3 365 385 384
3 365 367 385
3 367 386 385
3 367 369 386
3 369 387 386
3 369 370 387
3 370 388 387
3 370 371 388
3 371 389 388
3 371 372 389
3 379 390 391
3 379 380 390
3 380 392 390
3 380 381 392
3 381 393 392
3 381 382 393
3 382 394 393
3 382 383 394
3 383 395 394
3 383 384 395
3 384 396 395
3 384 385 396
3 385 397 396
3 385 386 397
3 386 398 397
3 386 387 398
3 387 399 398
3 387 388 399
3 391 400 401
3 391 390 400
3 401 402 403
3 401 400 402
3 403 404 405
3 403 402 404
3 405 406 407
3 405 404 406
