ply
format ascii 1.0
comment RFVisualizer Phase 2-A metric mesh
element vertex 432
property float x
property float y
property float z
element face 432
property list uchar int vertex_indices
end_header
0 4.592697 0
0 4.592697 3
0 5.613297 3
0 5.613297 0
2.041199 4.592697 0
2.041199 4.592697 3
0 7.144196 3
0 7.144196 0
0 8.164795 3
0 8.164795 0
0 9.695694 3
0 9.695694 0
0 11.736893 3
0 11.736893 0
0 12.757492 3
0 12.757492 0
0 14.288391 3
0 14.288391 0
0 15.308991 3
0 15.308991 0
0 16.83989 3
0 16.83989 0
0 19.901688 3
0 19.901688 0
0 20.922287 3
0 20.922287 0
2.041199 20.922287 3
2.041199 20.922287 0
2.551498 4.592697 0
2.551498 4.592697 3
2.551498 7.144196 0
2.551498 8.164795 0
2.551498 8.164795 3
2.551498 7.144196 3
2.551498 9.695694 0
2.551498 9.695694 3
2.551498 11.736893 0
2.551498 11.736893 3
2.551498 12.757492 0
2.551498 12.757492 3
2.551498 14.288391 0
2.551498 14.288391 3
2.551498 20.922287 3
2.551498 20.922287 0
4.082398 4.592697 0
4.082398 4.592697 3
4.082398 7.144196 3
4.082398 7.144196 0
4.082398 14.288391 0
4.082398 14.288391 3
4.082398 20.922287 3
4.082398 20.922287 0
5.613297 4.592697 0
5.613297 4.592697 3
4.082398 8.164795 3
4.082398 8.164795 0
5.613297 7.144196 0
5.613297 8.164795 0
5.613297 8.164795 3
5.613297 7.144196 3
4.082398 9.695694 3
4.082398 9.695694 0
5.613297 9.695694 0
5.613297 9.695694 3
4.082398 11.736893 3
4.082398 11.736893 0
5.613297 11.736893 0
5.613297 11.736893 3
4.082398 12.757492 3
4.082398 12.757492 0
5.613297 12.757492 0
5.613297 12.757492 3
5.613297 14.288391 0
5.613297 14.288391 3
5.613297 20.922287 3
5.613297 20.922287 0
6.633896 4.592697 0
6.633896 4.592697 3
6.633896 7.144196 3
6.633896 7.144196 0
6.633896 14.288391 0
6.633896 14.288391 3
6.633896 20.922287 3
6.633896 20.922287 0
8.164795 4.592697 0
8.164795 4.592697 3
8.164795 7.144196 3
8.164795 7.144196 0
8.164795 14.288391 0
8.164795 14.288391 3
8.164795 20.922287 3
8.164795 20.922287 0
9.695694 4.592697 0
9.695694 4.592697 3
9.695694 7.144196 3
9.695694 7.144196 0
9.695694 14.288391 0
9.695694 14.288391 3
9.695694 20.922287 3
9.695694 20.922287 0
10.716293 4.592697 0
10.716293 4.592697 3
10.716293 7.144196 3
10.716293 7.144196 0
10.716293 14.288391 0
10.716293 14.288391 3
10.716293 20.922287 3
10.716293 20.922287 0
11.226593 4.592697 0
11.226593 4.592697 3
11.226593 7.144196 3
11.226593 7.144196 0
11.226593 14.288391 0
11.226593 14.288391 3
11.226593 20.922287 3
11.226593 20.922287 0
12.247193 4.592697 0
12.247193 4.592697 3
12.247193 7.144196 3
12.247193 7.144196 0
12.247193 14.288391 0
12.247193 14.288391 3
12.247193 20.922287 3
12.247193 20.922287 0
13.267792 4.592697 0
13.267792 4.592697 3
13.267792 7.144196 3
13.267792 7.144196 0
13.267792 14.288391 0
13.267792 14.288391 3
13.267792 20.922287 3
13.267792 20.922287 0
14.288391 4.592697 0
14.288391 4.592697 3
13.267792 8.164795 3
13.267792 8.164795 0
14.288391 8.164795 3
14.288391 8.164795 0
14.288391 14.288391 0
14.288391 14.288391 3
14.288391 20.922287 3
14.288391 20.922287 0
15.308991 4.592697 0
15.308991 4.592697 3
15.308991 8.164795 3
15.308991 8.164795 0
15.308991 14.288391 0
15.308991 14.288391 3
15.308991 20.922287 3
15.308991 20.922287 0
16.32959 4.592697 0
16.32959 4.592697 3
16.32959 8.164795 3
16.32959 8.164795 0
16.32959 14.288391 0
16.32959 14.288391 3
16.32959 20.922287 3
16.32959 20.922287 0
17.350189 4.592697 0
17.350189 4.592697 3
17.350189 8.164795 3
17.350189 8.164795 0
17.350189 14.288391 0
17.350189 14.288391 3
17.350189 20.922287 3
17.350189 20.922287 0
18.881089 4.592697 0
18.881089 4.592697 3
18.881089 7.144196 0
18.881089 8.164795 0
18.881089 8.164795 3
18.881089 7.144196 3
17.350189 9.695694 3
17.350189 9.695694 0
18.881089 9.695694 0
18.881089 9.695694 3
17.350189 11.736893 3
17.350189 11.736893 0
18.881089 11.736893 0
18.881089 11.736893 3
18.881089 14.288391 0
18.881089 14.288391 3
18.881089 20.922287 3
18.881089 20.922287 0
20.411988 4.592697 0
20.411988 4.592697 3
20.411988 7.144196 3
20.411988 7.144196 0
20.411988 14.288391 0
20.411988 14.288391 3
20.411988 20.922287 3
20.411988 20.922287 0
21.432587 4.592697 0
21.432587 4.592697 3
21.432587 7.144196 3
21.432587 7.144196 0
21.432587 14.288391 0
21.432587 14.288391 3
21.432587 20.922287 3
21.432587 20.922287 0
22.963486 4.592697 0
22.963486 4.592697 3
22.963486 7.144196 3
22.963486 7.144196 0
22.963486 14.288391 0
22.963486 14.288391 3
22.963486 20.922287 3
22.963486 20.922287 0
23.473786 4.592697 0
23.473786 4.592697 3
23.473786 7.144196 3
23.473786 7.144196 0
23.473786 14.288391 0
23.473786 14.288391 3
23.473786 20.922287 3
23.473786 20.922287 0
23.984085 4.592697 0
23.984085 4.592697 3
23.984085 7.144196 3
23.984085 7.144196 0
23.984085 14.288391 0
23.984085 14.288391 3
23.984085 20.922287 3
23.984085 20.922287 0
23.984085 0 0
23.984085 0 3
23.984085 1.530899 3
23.984085 1.530899 0
25.004685 0 0
25.004685 0 3
23.984085 2.041199 3
23.984085 2.041199 0
23.984085 2.551498 3
23.984085 2.551498 0
23.984085 3.572098 3
23.984085 3.572098 0
25.004685 7.144196 3
25.004685 7.144196 0
25.004685 14.288391 0
25.004685 14.288391 3
25.004685 20.922287 3
25.004685 20.922287 0
25.514984 0 0
25.514984 0 3
25.514984 7.144196 3
25.514984 7.144196 0
25.514984 14.288391 0
25.514984 14.288391 3
25.514984 20.922287 3
25.514984 20.922287 0
26.535584 0 0
26.535584 0 3
26.535584 7.144196 3
26.535584 7.144196 0
26.535584 14.288391 0
26.535584 14.288391 3
26.535584 20.922287 3
26.535584 20.922287 0
27.045884 0 0
27.045884 0 3
27.045884 7.144196 3
27.045884 7.144196 0
27.045884 14.288391 0
27.045884 14.288391 3
27.045884 20.922287 3
27.045884 20.922287 0
28.066483 0 0
28.066483 0 3
28.066483 3.572098 0
28.066483 4.592697 0
28.066483 4.592697 3
28.066483 3.572098 3
28.066483 7.144196 3
28.066483 7.144196 0
28.066483 14.288391 0
28.066483 14.288391 3
28.066483 20.922287 3
28.066483 20.922287 0
29.087082 0 0
29.087082 0 3
29.087082 3.572098 3
29.087082 3.572098 0
29.087082 4.592697 0
29.087082 4.592697 3
29.087082 7.144196 3
29.087082 7.144196 0
29.087082 14.288391 0
29.087082 14.288391 3
29.087082 20.922287 3
29.087082 20.922287 0
31.128281 0 0
31.128281 0 3
31.128281 1.530899 0
31.128281 2.041199 0
31.128281 2.041199 3
31.128281 1.530899 3
31.128281 2.551498 0
31.128281 2.551498 3
31.128281 3.572098 0
31.128281 3.572098 3
31.128281 4.592697 0
31.128281 4.592697 3
31.128281 7.144196 3
31.128281 7.144196 0
31.128281 14.288391 0
31.128281 14.288391 3
31.128281 20.922287 3
31.128281 20.922287 0
32.14888 0 0
32.14888 1.530899 0
32.14888 1.530899 3
32.14888 0 3
32.14888 4.592697 0
32.14888 4.592697 3
32.14888 7.144196 3
32.14888 7.144196 0
32.14888 14.288391 0
32.14888 15.308991 0
32.14888 15.308991 3
32.14888 14.288391 3
32.14888 20.922287 3
32.14888 20.922287 0
34.190079 4.592697 0
34.190079 4.592697 3
34.190079 7.144196 3
34.190079 7.144196 0
34.190079 15.308991 0
34.190079 15.308991 3
34.190079 20.922287 3
34.190079 20.922287 0
35.210679 4.592697 0
35.210679 4.592697 3
35.210679 7.144196 3
35.210679 7.144196 0
35.210679 15.308991 0
35.210679 15.308991 3
35.210679 20.922287 3
35.210679 20.922287 0
36.231278 4.592697 0
36.231278 4.592697 3
36.231278 7.144196 3
36.231278 7.144196 0
36.231278 15.308991 0
36.231278 15.308991 3
36.231278 20.922287 3
36.231278 20.922287 0
36.231278 0 0
36.231278 0 3
36.231278 1.530899 3
36.231278 1.530899 0
37.251877 0 0
37.251877 0 3
36.231278 2.041199 3
36.231278 2.041199 0
36.231278 2.551498 3
36.231278 2.551498 0
36.231278 3.572098 3
36.231278 3.572098 0
36.231278 8.164795 3
36.231278 8.164795 0
37.251877 8.164795 3
37.251877 8.164795 0
37.251877 15.308991 0
37.251877 15.308991 3
37.251877 20.922287 3
37.251877 20.922287 0
38.272477 0 0
38.272477 0 3
37.251877 9.695694 3
37.251877 9.695694 0
37.251877 11.736893 3
37.251877 11.736893 0
37.251877 12.757492 3
37.251877 12.757492 0
37.251877 14.288391 3
37.251877 14.288391 0
38.272477 20.922287 3
38.272477 20.922287 0
39.293076 0 0
39.293076 1.530899 0
39.293076 1.530899 3
39.293076 0 3
39.293076 2.041199 0
39.293076 2.041199 3
39.293076 2.551498 0
39.293076 2.551498 3
39.293076 3.572098 0
39.293076 3.572098 3
39.293076 4.592697 0
39.293076 4.592697 3
39.293076 5.613297 0
39.293076 5.613297 3
39.293076 19.901688 0
39.293076 20.922287 0
39.293076 20.922287 3
39.293076 19.901688 3
40.313675 5.613297 0
40.313675 5.613297 3
40.313675 7.144196 0
40.313675 8.164795 0
40.313675 8.164795 3
40.313675 7.144196 3
40.313675 9.695694 0
40.313675 9.695694 3
40.313675 11.736893 0
40.313675 11.736893 3
40.313675 12.757492 0
40.313675 12.757492 3
40.313675 14.288391 0
40.313675 14.288391 3
40.313675 15.308991 0
40.313675 15.308991 3
40.313675 16.83989 0
40.313675 16.83989 3
40.313675 19.901688 0
40.313675 19.901688 3
42.354874 5.613297 0
42.354874 5.613297 3
42.354874 7.144196 3
42.354874 7.144196 0
43.375474 5.613297 0
43.375474 5.613297 3
43.375474 7.144196 3
43.375474 7.144196 0
43.885773 5.613297 0
43.885773 5.613297 3
43.885773 7.144196 3
43.885773 7.144196 0
44.906373 5.613297 0
44.906373 7.144196 0
44.906373 7.144196 3
44.906373 5.613297 3
3 0 1 2
3 0 2 3
3 0 4 5
3 0 5 1
3 3 2 6
3 3 6 7
3 7 6 8
3 7 8 9
3 9 8 10
3 9 10 11
3 11 10 12
3 11 12 13
3 13 12 14
3 13 14 15
3 15 14 16
3 15 16 17
3 17 16 18
3 17 18 19
3 19 18 20
3 19 20 21
3 21 20 22
3 21 22 23
3 23 22 24
3 23 24 25
3 25 24 26
3 25 26 27
3 4 28 29
3 4 29 5
3 30 31 32
3 30 32 33
3 31 34 35
3 31 35 32
3 34 36 37
3 34 37 35
3 36 38 39
3 36 39 37
3 38 40 41
3 38 41 39
3 27 26 42
3 27 42 43
3 28 44 45
3 28 45 29
3 30 33 46
3 30 46 47
3 40 48 49
3 40 49 41
3 43 42 50
3 43 50 51
3 44 52 53
3 44 53 45
3 47 46 54
3 47 54 55
3 56 57 58
3 56 58 59
3 55 54 60
3 55 60 61
3 57 62 63
3 57 63 58
3 61 60 64
3 61 64 65
3 62 66 67
3 62 67 63
3 65 64 68
3 65 68 69
3 66 70 71
3 66 71 67
3 69 68 49
3 69 49 48
3 70 72 73
3 70 73 71
3 51 50 74
3 51 74 75
3 52 76 77
3 52 77 53
3 56 59 78
3 56 78 79
3 72 80 81
3 72 81 73
3 75 74 82
3 75 82 83
3 76 84 85
3 76 85 77
3 79 78 86
3 79 86 87
3 80 88 89
3 80 89 81
3 83 82 90
3 83 90 91
3 84 92 93
3 84 93 85
3 87 86 94
3 87 94 95
3 88 96 97
3 88 97 89
3 91 90 98
3 91 98 99
3 92 100 101
3 92 101 93
3 95 94 102
3 95 102 103
3 96 104 105
3 96 105 97
3 99 98 106
3 99 106 107
3 100 108 109
3 100 109 101
3 103 102 110
3 103 110 111
3 104 112 113
3 104 113 105
3 107 106 114
3 107 114 115
3 108 116 117
3 108 117 109
3 111 110 118
3 111 118 119
3 112 120 121
3 112 121 113
3 115 114 122
3 115 122 123
3 116 124 125
3 116 125 117
3 119 118 126
3 119 126 127
3 120 128 129
3 120 129 121
3 123 122 130
3 123 130 131
3 124 132 133
3 124 133 125
3 127 126 134
3 127 134 135
3 135 134 136
3 135 136 137
3 128 138 139
3 128 139 129
3 131 130 140
3 131 140 141
3 132 142 143
3 132 143 133
3 137 136 144
3 137 144 145
3 138 146 147
3 138 147 139
3 141 140 148
3 141 148 149
3 142 150 151
3 142 151 143
3 145 144 152
3 145 152 153
3 146 154 155
3 146 155 147
3 149 148 156
3 149 156 157
3 150 158 159
3 150 159 151
3 153 152 160
3 153 160 161
3 154 162 163
3 154 163 155
3 157 156 164
3 157 164 165
3 158 166 167
3 158 167 159
3 168 169 170
3 168 170 171
3 161 160 172
3 161 172 173
3 169 174 175
3 169 175 170
3 173 172 176
3 173 176 177
3 174 178 179
3 174 179 175
3 177 176 179
3 177 179 178
3 162 180 181
3 162 181 163
3 165 164 182
3 165 182 183
3 166 184 185
3 166 185 167
3 168 171 186
3 168 186 187
3 180 188 189
3 180 189 181
3 183 182 190
3 183 190 191
3 184 192 193
3 184 193 185
3 187 186 194
3 187 194 195
3 188 196 197
3 188 197 189
3 191 190 198
3 191 198 199
3 192 200 201
3 192 201 193
3 195 194 202
3 195 202 203
3 196 204 205
3 196 205 197
3 199 198 206
3 199 206 207
3 200 208 209
3 200 209 201
3 203 202 210
3 203 210 211
3 204 212 213
3 204 213 205
3 207 206 214
3 207 214 215
3 208 216 217
3 208 217 209
3 211 210 218
3 211 218 219
3 212 220 221
3 212 221 213
3 215 214 222
3 215 222 223
3 224 225 226
3 224 226 227
3 224 228 229
3 224 229 225
3 227 226 230
3 227 230 231
3 231 230 232
3 231 232 233
3 233 232 234
3 233 234 235
3 235 234 217
3 235 217 216
3 219 218 236
3 219 236 237
3 220 238 239
3 220 239 221
3 223 222 240
3 223 240 241
3 228 242 243
3 228 243 229
3 237 236 244
3 237 244 245
3 238 246 247
3 238 247 239
3 241 240 248
3 241 248 249
3 242 250 251
3 242 251 243
3 245 244 252
3 245 252 253
3 246 254 255
3 246 255 247
3 249 248 256
3 249 256 257
3 250 258 259
3 250 259 251
3 253 252 260
3 253 260 261
3 254 262 263
3 254 263 255
3 257 256 264
3 257 264 265
3 258 266 267
3 258 267 259
3 268 269 270
3 268 270 271
3 261 260 272
3 261 272 273
3 262 274 275
3 262 275 263
3 265 264 276
3 265 276 277
3 266 278 279
3 266 279 267
3 268 271 280
3 268 280 281
3 269 282 283
3 269 283 270
3 273 272 284
3 273 284 285
3 274 286 287
3 274 287 275
3 277 276 288
3 277 288 289
3 278 290 291
3 278 291 279
3 292 293 294
3 292 294 295
3 293 296 297
3 293 297 294
3 296 298 299
3 296 299 297
3 281 280 283
3 281 283 282
3 298 300 301
3 298 301 299
3 285 284 302
3 285 302 303
3 286 304 305
3 286 305 287
3 289 288 306
3 289 306 307
3 308 309 310
3 308 310 311
3 290 308 311
3 290 311 291
3 292 295 310
3 292 310 309
3 300 312 313
3 300 313 301
3 303 302 314
3 303 314 315
3 316 317 318
3 316 318 319
3 304 316 319
3 304 319 305
3 307 306 320
3 307 320 321
3 312 322 323
3 312 323 313
3 315 314 324
3 315 324 325
3 317 326 327
3 317 327 318
3 321 320 328
3 321 328 329
3 322 330 331
3 322 331 323
3 325 324 332
3 325 332 333
3 326 334 335
3 326 335 327
3 329 328 336
3 329 336 337
3 330 338 339
3 330 339 331
3 333 332 340
3 333 340 341
3 334 342 343
3 334 343 335
3 337 336 344
3 337 344 345
3 346 347 348
3 346 348 349
3 346 350 351
3 346 351 347
3 349 348 352
3 349 352 353
3 353 352 354
3 353 354 355
3 355 354 356
3 355 356 357
3 357 356 339
3 357 339 338
3 341 340 358
3 341 358 359
3 359 358 360
3 359 360 361
3 342 362 363
3 342 363 343
3 345 344 364
3 345 364 365
3 350 366 367
3 350 367 351
3 361 360 368
3 361 368 369
3 369 368 370
3 369 370 371
3 371 370 372
3 371 372 373
3 373 372 374
3 373 374 375
3 375 374 363
3 375 363 362
3 365 364 376
3 365 376 377
3 378 379 380
3 378 380 381
3 366 378 381
3 366 381 367
3 379 382 383
3 379 383 380
3 382 384 385
3 382 385 383
3 384 386 387
3 384 387 385
3 386 388 389
3 386 389 387
3 388 390 391
3 388 391 389
3 392 393 394
3 392 394 395
3 377 376 394
3 377 394 393
3 390 396 397
3 390 397 391
3 398 399 400
3 398 400 401
3 399 402 403
3 399 403 400
3 402 404 405
3 402 405 403
3 404 406 407
3 404 407 405
3 406 408 409
3 406 409 407
3 408 410 411
3 408 411 409
3 410 412 413
3 410 413 411
3 412 414 415
3 412 415 413
3 392 395 415
3 392 415 414
3 396 416 417
3 396 417 397
3 398 401 418
3 398 418 419
3 416 420 421
3 416 421 417
3 419 418 422
3 419 422 423
3 420 424 425
3 420 425 421
3 423 422 426
3 423 426 427
3 428 429 430
3 428 430 431
3 424 428 431
3 424 431 425
3 427 426 430
3 427 430 429
