# RFVisualizer Phase 2-B obstacle layer
# SYNTHETIC/PROVISIONAL - NOT PHYSICALLY VALIDATED
mtllib obstacles_combined.mtl

# obstacle_id: blocker_panel_000
o blocker_panel_000
g obstacle_validation
usemtl itu_wood_blocker_panel_000
v -5.075 -6.25 0.259806419687
v -4.925 -6.25 0.259806419687
v -4.925 -3.75 0.259806419687
v -5.075 -3.75 0.259806419687
v -5.075 -6.25 2.25980641969
v -4.925 -6.25 2.25980641969
v -4.925 -3.75 2.25980641969
v -5.075 -3.75 2.25980641969
f 1 3 2
f 1 4 3
f 5 6 7
f 5 7 8
f 1 2 6
f 1 6 5
f 2 3 7
f 2 7 6
f 3 4 8
f 3 8 7
f 4 1 5
f 4 5 8
